<svg width="46" height="14" viewBox="0 0 46 14" fill="none" xmlns="http://www.w3.org/2000/svg">
<g clip-path="url(#clip0_3880_22826)">
<path d="M42.1776 6.71064H40.55C39.5023 6.71064 38.941 7.5024 38.941 8.82185V13.5916H35.8542V6.71016H34.5443C33.4965 6.71016 32.9357 7.50192 32.9357 8.82138V13.5911H29.8484V4.1655H32.9357V5.59834C33.4411 4.48604 34.1332 4.1655 35.1625 4.1655H38.9414V5.59834C39.4468 4.48604 40.139 4.1655 41.1682 4.1655H42.1781L42.1776 6.71064ZM29.1747 9.61362H22.739C22.9073 10.6695 23.562 11.2727 24.6657 11.2727C25.4887 11.2727 26.069 10.9331 26.2562 10.3303L28.9875 11.1029C28.3143 12.7429 26.6488 13.7423 24.6657 13.7423C21.3167 13.7423 19.7826 11.1216 19.7826 8.87879C19.7826 6.67332 21.1294 4.03394 24.4784 4.03394C28.0331 4.03394 29.2117 6.71064 29.2117 8.69029C29.214 8.99849 29.2017 9.30662 29.1747 9.61362ZM26.1813 7.78514C26.1064 6.97424 25.5261 6.22075 24.4789 6.22075C23.5056 6.22075 22.9262 6.65371 22.739 7.78514H26.1813ZM14.395 13.5911H17.1073L20.4937 4.16646H17.3884L15.7419 9.65141L14.0579 4.16598H10.9707L14.395 13.5911ZM1.74772 13.5911H4.81603V6.71064H7.73547V13.5916H10.7848V4.16598H4.81603V3.58185C4.81603 2.94078 5.26499 2.54513 5.97612 2.54513H7.73499V0H5.47122C3.24442 0 1.74772 1.37638 1.74772 3.39287V4.16598H0.0078125V6.71112H1.74772V13.5911Z" fill="#404145"/>
<path d="M44.0845 13.8739C45.1384 13.8739 45.9927 13.0127 45.9927 11.9507C45.9927 10.8886 45.1384 10.028 44.0845 10.028C43.0306 10.028 42.1758 10.8891 42.1758 11.9512C42.1758 13.0132 43.0306 13.8739 44.0845 13.8739Z" fill="#1DBF73"/>
</g>
<defs>
<clipPath id="clip0_3880_22826">
<rect width="46" height="14" fill="white"/>
</clipPath>
</defs>
</svg>
